/* XPM */
static const char * create_new_xpm[] = {
"16 16 134 2",
"  	c None",
". 	c #BABABA",
"+ 	c #B8B8B8",
"@ 	c #B7B7B7",
"# 	c #B6B6B6",
"$ 	c #B4B4B4",
"% 	c #B3B3B3",
"& 	c #BBBBBB",
"* 	c #D0D0D0",
"= 	c #E8E8E8",
"- 	c #F3F3F3",
"; 	c #FDFDFD",
"> 	c #FCFCFC",
", 	c #EDEDED",
"' 	c #E0E0E0",
") 	c #C2C2C2",
"! 	c #ADADAD",
"~ 	c #E1E1E1",
"{ 	c #FEFEFE",
"] 	c #FFFFFF",
"^ 	c #FBFBFB",
"/ 	c #CFCFCF",
"( 	c #A9A9A9",
"_ 	c #B9B9B9",
": 	c #F8F8F8",
"< 	c #EAEAEA",
"[ 	c #A7A7A7",
"} 	c #B4B8BE",
"| 	c #C1C1C1",
"1 	c #EFEFEF",
"2 	c #F6F6F6",
"3 	c #FAFAFA",
"4 	c #F0F0F0",
"5 	c #DEDEDE",
"6 	c #C3C3C3",
"7 	c #E6E6E6",
"8 	c #A5A5A5",
"9 	c #9FBEEA",
"0 	c #9BAFCD",
"a 	c #BCBCBC",
"b 	c #ABABAB",
"c 	c #D6D6D6",
"d 	c #D5D5D5",
"e 	c #D1D1D1",
"f 	c #C0C0C0",
"g 	c #E5E5E5",
"h 	c #A3A3A3",
"i 	c #9CBBE7",
"j 	c #A3C0E8",
"k 	c #A3BFE5",
"l 	c #8C9EB6",
"m 	c #AEAEAE",
"n 	c #A8A8A8",
"o 	c #CDCDCD",
"p 	c #E3E3E3",
"q 	c #A0A0A0",
"r 	c #93B4E3",
"s 	c #ADC6E8",
"t 	c #A6C0E3",
"u 	c #8FB0DB",
"v 	c #748FB5",
"w 	c #C1CBD9",
"x 	c #9A9A9A",
"y 	c #7A7A7A",
"z 	c #DCDCDC",
"A 	c #C9C9C9",
"B 	c #BDBDBD",
"C 	c #BFBFBF",
"D 	c #E2E2E2",
"E 	c #9E9E9E",
"F 	c #8CAEDD",
"G 	c #A4BEE2",
"H 	c #89ABD8",
"I 	c #94B3D9",
"J 	c #7A9FCF",
"K 	c #5B7AA4",
"L 	c #939393",
"M 	c #696969",
"N 	c #9B9B9B",
"O 	c #82A6D7",
"P 	c #99B6DC",
"Q 	c #7DA1D0",
"R 	c #739ACB",
"S 	c #82A4CF",
"T 	c #7499C7",
"U 	c #586C89",
"V 	c #878787",
"W 	c #828282",
"X 	c #969696",
"Y 	c #7CA1D0",
"Z 	c #8FAED7",
"` 	c #6F97C9",
" .	c #668FC3",
"..	c #5C88BD",
"+.	c #648CC0",
"@.	c #6188BC",
"#.	c #3F5485",
"$.	c #D0D1D3",
"%.	c #B0B0B0",
"&.	c #909090",
"*.	c #608CC6",
"=.	c #83A6D1",
"-.	c #7B9FCC",
";.	c #7B9ECB",
">.	c #6C92C3",
",.	c #658DBE",
"'.	c #4569A8",
").	c #8B97BA",
"!.	c #C4C4C4",
"~.	c #8B8B8B",
"{.	c #5A88C4",
"].	c #6892C6",
"^.	c #80A2CD",
"/.	c #7096C5",
"(.	c #537BB6",
"_.	c #466AAB",
":.	c #3D5EA3",
"<.	c #35529C",
"[.	c #596BA7",
"}.	c #EEEFF1",
"|.	c #F4F4F4",
"1.	c #8A8A8A",
"2.	c #4A7CBA",
"3.	c #5C87BF",
"4.	c #567EB9",
"5.	c #3A62A7",
"6.	c #7D859D",
"7.	c #90939D",
"8.	c #9F9FA1",
"9.	c #959595",
"0.	c #8D8D8D",
"a.	c #898989",
"b.	c #3C66AB",
"c.	c #385DA4",
"                                ",
"              . + @ # $ %       ",
"          & * = - ; > , ' ) !   ",
"        . ~ { ] ] ] ] ] ] ^ / ( ",
"        _ : { ] ] ] ] ] ] ^ < [ ",
"        } | # 1 2 ^ 3 4 5 6 7 8 ",
"      9 0 @ a b c d e 6 a f g h ",
"    i j k l m n ~ g ~ o ) ) p q ",
"    r s t u v w x y z A B C D E ",
"    F G H I J K L ( M 6 + & ~ N ",
"    O P Q R S T U V W f % @ ' X ",
"    Y Z `  ...+.@.#.$.C %.% 5 &.",
"  *.=.-.;.T >.,.'.).c f A 7 !.~.",
"{.].^./.(._.:.<.[.}.|.1 D . 1.  ",
"2.3.4.5.    6.7.8.b [ 9.0.a.    ",
"  b.c.                          "};
